<svg width="12" height="12" viewBox="0 0 12 12" fill="none" xmlns="http://www.w3.org/2000/svg">
<path d="M3.75 9.005C3.74781 9.3569 3.85818 9.70028 4.065 9.985C2.725 9.9 1.5 9.41 1.5 8.505V8.065C2.16278 8.52865 2.94229 8.79714 3.75 8.84V9.005ZM3.77 6.97C3.76819 6.97203 3.76681 6.97441 3.76595 6.97698C3.76509 6.97956 3.76477 6.98229 3.765 6.985C3.75498 7.03437 3.74995 7.08462 3.75 7.135V8.09C2.54 7.95 1.5 7.47 1.5 6.635V6.195C2.16553 6.66427 2.9515 6.9332 3.765 6.97H3.77ZM5.72 5.14C5.05257 5.3112 4.46028 5.69786 4.035 6.24C2.705 6.155 1.5 5.665 1.5 4.765V4.425C2.38503 5.01509 3.43805 5.30116 4.5 5.24C4.90877 5.24136 5.31691 5.2079 5.72 5.14ZM7.5 4.425V4.765C7.49929 4.80683 7.49594 4.84858 7.49 4.89C7.11462 4.88927 6.73989 4.92105 6.37 4.985C6.77829 4.87044 7.16155 4.6805 7.5 4.425ZM4.5 1.5C3 1.5 1.5 2 1.5 2.995C1.5 4 3 4.49 4.5 4.49C6 4.49 7.5 4 7.5 2.995C7.5 2 6 1.5 4.5 1.5ZM7.5 9.38C6.43243 9.4265 5.37893 9.12274 4.5 8.515V9.005C4.5 10 6 10.5 7.5 10.5C9 10.5 10.5 10 10.5 9.005V8.515C9.62107 9.12274 8.56757 9.4265 7.5 9.38ZM7.5 5.64C5.845 5.64 4.5 6.31 4.5 7.135C4.5 7.96 5.845 8.63 7.5 8.63C9.155 8.63 10.5 7.96 10.5 7.135C10.5 6.31 9.155 5.64 7.5 5.64Z" fill="#020308" fill-opacity="0.6"/>
</svg>
