<svg width="24" height="24" viewBox="0 0 24 24" fill="none" xmlns="http://www.w3.org/2000/svg">
<g clip-path="url(#clip0_2220_4619)">
<path d="M12.0014 12.2328C11.8728 12.2328 11.7686 12.1286 11.7686 12C11.7686 11.8713 11.8728 11.7671 12.0014 11.7671" stroke="currentColor" stroke-width="1.5" stroke-linecap="round" stroke-linejoin="round"/>
<path d="M12.001 12.2328C12.1296 12.2328 12.2338 12.1286 12.2338 12C12.2338 11.8713 12.1296 11.7671 12.001 11.7671" stroke="currentColor" stroke-width="1.5" stroke-linecap="round" stroke-linejoin="round"/>
<path d="M9.4399 12.2328C9.31129 12.2328 9.20703 12.1286 9.20703 12C9.20703 11.8713 9.31129 11.7671 9.4399 11.7671" stroke="currentColor" stroke-width="1.5" stroke-linecap="round" stroke-linejoin="round"/>
<path d="M9.43945 12.2328C9.56806 12.2328 9.67232 12.1286 9.67232 12C9.67232 11.8713 9.56806 11.7671 9.43945 11.7671" stroke="currentColor" stroke-width="1.5" stroke-linecap="round" stroke-linejoin="round"/>
<path d="M14.5629 12.2328C14.4343 12.2328 14.3301 12.1286 14.3301 12C14.3301 11.8713 14.4343 11.7671 14.5629 11.7671" stroke="currentColor" stroke-width="1.5" stroke-linecap="round" stroke-linejoin="round"/>
<path d="M14.5625 12.2328C14.6911 12.2328 14.7954 12.1286 14.7954 12C14.7954 11.8713 14.6911 11.7671 14.5625 11.7671" stroke="currentColor" stroke-width="1.5" stroke-linecap="round" stroke-linejoin="round"/>
<path d="M11.9982 6.00195C10.9132 6.00229 9.84862 6.29692 8.91783 6.85445C7.98705 7.41198 7.22492 8.21154 6.71262 9.16796C6.20031 10.1244 5.95703 11.2019 6.00866 12.2856C6.0603 13.3694 6.40493 14.4188 7.00585 15.3222L6 17.9984L9.36821 17.3893C10.1793 17.7856 11.0693 17.9938 11.972 17.9983C12.8747 18.0027 13.7668 17.8034 14.5817 17.4151C15.3967 17.0268 16.1135 16.4596 16.6786 15.7557C17.2438 15.0519 17.643 14.2295 17.846 13.3499C18.0492 12.4704 18.0512 11.5563 17.8519 10.6759C17.6526 9.79542 17.2572 8.97132 16.695 8.26499C16.1329 7.55866 15.4185 6.98832 14.6053 6.59649C13.7921 6.20465 12.9009 6.00142 11.9982 6.00195Z" stroke="currentColor" stroke-width="1.5" stroke-linecap="round" stroke-linejoin="round"/>
</g>
<defs>
<clipPath id="clip0_2220_4619">
<rect width="14" height="14" fill="white" transform="translate(5 5)"/>
</clipPath>
</defs>
</svg>
