<svg width="14" height="15" viewBox="0 0 14 15" fill="none" xmlns="http://www.w3.org/2000/svg">
<path d="M6.21357 13.1129C6.1675 13.1934 6.097 13.2572 6.01227 13.2951C5.92755 13.3329 5.83298 13.3429 5.74224 13.3234L5.66815 13.3077C5.35954 13.2416 5.06818 13.1116 4.81285 12.926C4.55753 12.7405 4.34388 12.5036 4.18568 12.2304C4.02747 11.9573 3.92822 11.6541 3.8943 11.3403C3.86038 11.0265 3.89255 10.7091 3.98874 10.4085L4.35974 9.25002L3.69649 9.25002C2.15357 9.25002 1.06391 7.7386 1.55216 6.27502L2.46157 3.54619C2.58742 3.16875 2.82882 2.84048 3.15159 2.60785C3.47435 2.37523 3.86213 2.25004 4.25999 2.25002L7.34524 2.25002C7.94559 2.24991 8.52783 2.45559 8.99491 2.83277C9.07777 2.65836 9.20841 2.51102 9.37166 2.40787C9.5349 2.30472 9.72405 2.24999 9.91716 2.25002L11.2297 2.25002C11.5004 2.25002 11.7601 2.35757 11.9515 2.54902C12.1429 2.74046 12.2505 3.00011 12.2505 3.27086L12.2505 8.22919C12.2505 8.79269 11.7932 9.25002 11.2297 9.25002L8.50549 9.25002C8.47978 9.25003 8.45454 9.25683 8.43231 9.26974C8.41008 9.28265 8.39166 9.3012 8.37891 9.32352L6.21357 13.1129ZM8.89632 3.90669L8.49791 3.55786C8.1788 3.27871 7.76921 3.12491 7.34524 3.12502L4.25999 3.12502C4.04573 3.12506 3.83691 3.19252 3.66311 3.31784C3.48932 3.44316 3.35936 3.61999 3.29166 3.82327L2.38224 6.55152C2.31283 6.75977 2.29389 6.98153 2.327 7.19854C2.3601 7.41554 2.4443 7.62157 2.57264 7.79965C2.70099 7.97773 2.86982 8.12276 3.06521 8.2228C3.26061 8.32284 3.47698 8.37501 3.69649 8.37502L4.95882 8.37502C5.02771 8.37504 5.09562 8.39132 5.15703 8.42255C5.21844 8.45378 5.2716 8.49906 5.31219 8.55472C5.35279 8.61038 5.37966 8.67484 5.39063 8.74285C5.4016 8.81086 5.39636 8.88051 5.37532 8.94611L4.82232 10.6751C4.7156 11.0082 4.73885 11.3694 4.88741 11.6861C5.03597 12.0028 5.29884 12.2516 5.62324 12.3825L7.61941 8.88952C7.70865 8.73328 7.83761 8.6034 7.99322 8.51305C8.14883 8.4227 8.32555 8.37508 8.50549 8.37502L8.89632 8.37502L8.89632 3.90669ZM9.77132 8.37502L11.2297 8.37502C11.2683 8.37502 11.3054 8.35966 11.3328 8.33231C11.3601 8.30496 11.3755 8.26787 11.3755 8.22919L11.3755 3.27086C11.3755 3.19036 11.3102 3.12502 11.2297 3.12502L9.91716 3.12502C9.87848 3.12502 9.84139 3.14039 9.81404 3.16774C9.78669 3.19509 9.77132 3.23218 9.77132 3.27086L9.77132 8.37502Z" fill="white"/>
</svg>
