<svg width="14" height="14" viewBox="0 0 14 14" fill="none" xmlns="http://www.w3.org/2000/svg">
<g clip-path="url(#clip0_2246_5790)">
<path d="M14 9.74352C14 8.56328 14 7.37437 14 6.19413C14 5.95114 13.9065 5.76889 13.7009 5.62136C11.6168 4.13738 9.54206 2.64473 7.46729 1.15207C7.11215 0.900401 6.88785 0.900401 6.54206 1.14339C4.46729 2.63605 2.39252 4.12871 0.308411 5.62136C0.102804 5.76889 0 5.93378 0 6.18545C0.0093458 8.55461 0 10.9238 0 13.2929C0 13.7615 0.224299 13.9698 0.719626 13.9698C2.17757 13.9698 3.62617 13.9698 5.08411 13.9698C5.45794 13.9698 5.54206 13.8917 5.54206 13.5359C5.54206 12.7809 5.53271 12.0346 5.54206 11.2796C5.5514 10.4117 6.37383 9.76956 7.25234 9.93445C7.97196 10.0646 8.43925 10.594 8.4486 11.2883C8.45794 12.0433 8.4486 12.8069 8.4486 13.5619C8.4486 13.8744 8.54206 13.9611 8.86916 13.9698C10.3364 13.9698 11.8037 13.9698 13.2804 13.9698C13.7664 13.9698 13.9907 13.7529 13.9907 13.3016C14 12.1127 14 10.9324 14 9.74352Z" fill="currentColor"/>
<path d="M7.71017 13.9522H6.21484V11.3487C6.21484 10.9669 6.55129 10.6545 6.96251 10.6545C7.37372 10.6545 7.71017 10.9669 7.71017 11.3487V13.9522Z" fill="currentColor"/>
</g>
<defs>
<clipPath id="clip0_2246_5790">
<rect width="14" height="13" fill="white" transform="translate(0 0.960876)"/>
</clipPath>
</defs>
</svg>
