<svg width="14" height="15" viewBox="0 0 14 15" fill="none" xmlns="http://www.w3.org/2000/svg">
<path d="M7.7874 1.88714C7.83348 1.80659 7.90398 1.74278 7.9887 1.70493C8.07343 1.66707 8.168 1.65714 8.25874 1.67656L8.33282 1.69231C8.64144 1.75842 8.93279 1.88843 9.18812 2.07396C9.44345 2.2595 9.65709 2.49645 9.8153 2.76955C9.9735 3.04266 10.0728 3.34587 10.1067 3.65966C10.1406 3.97345 10.1084 4.29087 10.0122 4.59148L9.64124 5.74998H10.3045C11.8474 5.74998 12.9371 7.26139 12.4488 8.72498L11.5394 11.4538C11.4136 11.8312 11.1722 12.1595 10.8494 12.3921C10.5266 12.6248 10.1388 12.75 9.74099 12.75H6.65574C6.05539 12.7501 5.47314 12.5444 5.00607 12.1672C4.9232 12.3416 4.79256 12.489 4.62932 12.5921C4.46608 12.6953 4.27692 12.75 4.08382 12.75H2.77132C2.50058 12.75 2.24093 12.6424 2.04948 12.451C1.85804 12.2595 1.75049 11.9999 1.75049 11.7291V6.77081C1.75049 6.20731 2.20782 5.74998 2.77132 5.74998H5.49549C5.52119 5.74997 5.54644 5.74317 5.56867 5.73026C5.5909 5.71735 5.60932 5.6988 5.62207 5.67648L7.7874 1.88714ZM5.10465 11.0933L5.50307 11.4421C5.82218 11.7213 6.23177 11.8751 6.65574 11.875H9.74099C9.95525 11.8749 10.1641 11.8075 10.3379 11.6822C10.5117 11.5568 10.6416 11.38 10.7093 11.1767L11.6187 8.44848C11.6882 8.24023 11.7071 8.01847 11.674 7.80146C11.6409 7.58446 11.5567 7.37843 11.4283 7.20035C11.3 7.02227 11.1312 6.87723 10.9358 6.7772C10.7404 6.67716 10.524 6.62499 10.3045 6.62498H9.04215C8.97326 6.62496 8.90535 6.60868 8.84395 6.57745C8.78254 6.54622 8.72938 6.50093 8.68878 6.44527C8.64819 6.38962 8.62131 6.32516 8.61034 6.25715C8.59937 6.18913 8.60462 6.11949 8.62565 6.05389L9.17865 4.32489C9.28538 3.99176 9.26212 3.63058 9.11356 3.31387C8.965 2.99717 8.70214 2.74839 8.37774 2.61748L6.38157 6.11048C6.29232 6.26672 6.16336 6.3966 6.00776 6.48695C5.85215 6.5773 5.67542 6.62492 5.49549 6.62498H5.10465V11.0933ZM4.22965 6.62498H2.77132C2.73264 6.62498 2.69555 6.64034 2.6682 6.66769C2.64085 6.69504 2.62549 6.73213 2.62549 6.77081V11.7291C2.62549 11.8096 2.69082 11.875 2.77132 11.875H4.08382C4.1225 11.875 4.15959 11.8596 4.18694 11.8323C4.21429 11.8049 4.22965 11.7678 4.22965 11.7291V6.62498Z" fill="white"/>
</svg>
