<svg width="16" height="16" viewBox="0 0 16 16" fill="none" xmlns="http://www.w3.org/2000/svg">
<path d="M8.00017 1.33301C6.68162 1.33301 5.39269 1.724 4.29636 2.45654C3.20004 3.18909 2.34555 4.23028 1.84097 5.44845C1.33638 6.66663 1.20436 8.00707 1.4616 9.30028C1.71883 10.5935 2.35377 11.7814 3.28612 12.7137C4.21847 13.6461 5.40636 14.281 6.69956 14.5382C7.99277 14.7955 9.33322 14.6635 10.5514 14.1589C11.7696 13.6543 12.8108 12.7998 13.5433 11.7035C14.2758 10.6071 14.6668 9.31822 14.6668 7.99967C14.6668 7.1242 14.4944 6.25729 14.1594 5.44845C13.8243 4.63961 13.3333 3.90469 12.7142 3.28563C12.0952 2.66657 11.3602 2.17551 10.5514 1.84048C9.74255 1.50545 8.87565 1.33301 8.00017 1.33301ZM11.7868 7.69301L10.3668 9.14634L10.7002 11.213C10.7233 11.3386 10.7098 11.4683 10.6613 11.5864C10.6129 11.7046 10.5315 11.8064 10.4268 11.8797C10.324 11.951 10.2033 11.9919 10.0783 11.9978C9.95332 12.0037 9.82922 11.9743 9.72017 11.913L8.00017 10.9463L6.26683 11.8997C6.16988 11.9568 6.05935 11.9867 5.94683 11.9863C5.80862 11.9874 5.6735 11.9455 5.56017 11.8663C5.45553 11.7931 5.37413 11.6913 5.32568 11.5731C5.27722 11.4549 5.26374 11.3253 5.28683 11.1997L5.62683 9.13301L4.20017 7.69301C4.11392 7.60512 4.0537 7.49506 4.02619 7.37503C3.99868 7.255 4.00495 7.1297 4.0443 7.01302C4.08366 6.89634 4.15456 6.79284 4.24914 6.714C4.34373 6.63515 4.45831 6.58404 4.58017 6.56634L6.52017 6.26634L7.3935 4.41301C7.44307 4.2923 7.52698 4.18879 7.63482 4.11532C7.74266 4.04185 7.86969 4.00164 8.00017 3.99967C8.12696 3.99877 8.25138 4.03403 8.35883 4.10134C8.46628 4.16865 8.55232 4.2652 8.60683 4.37967L9.4735 6.26634L11.4135 6.56634C11.5349 6.58448 11.6489 6.63578 11.743 6.71459C11.8372 6.79341 11.9077 6.89667 11.9468 7.01301C11.9857 7.13006 11.9913 7.25559 11.963 7.37564C11.9348 7.49569 11.8738 7.60555 11.7868 7.69301Z" fill="#020308"/>
</svg>
