<svg width="16" height="16" viewBox="0 0 16 16" fill="currentColor" xmlns="http://www.w3.org/2000/svg">
<g clip-path="url(#clip0_184_9858)">
<path d="M15.3333 7.99999C15.3334 7.8761 15.2989 7.75465 15.2338 7.64926C15.1687 7.54386 15.0755 7.4587 14.9646 7.40332L12.824 6.33332L14.9646 5.26665C15.0756 5.21136 15.1689 5.12624 15.2341 5.02084C15.2994 4.91544 15.3339 4.79394 15.3339 4.66999C15.3339 4.54604 15.2994 4.42454 15.2341 4.31914C15.1689 4.21374 15.0756 4.12861 14.9646 4.07332L8.29797 0.739988C8.20544 0.693749 8.10341 0.669678 7.99997 0.669678C7.89653 0.669678 7.79451 0.693749 7.70197 0.739988L1.0353 4.07332C0.924367 4.12861 0.83104 4.21374 0.765807 4.31914C0.700573 4.42454 0.666016 4.54604 0.666016 4.66999C0.666016 4.79394 0.700573 4.91544 0.765807 5.02084C0.83104 5.12624 0.924367 5.21136 1.0353 5.26665L3.17597 6.33332L1.0353 7.40332C0.924367 7.45861 0.83104 7.54374 0.765807 7.64914C0.700573 7.75454 0.666016 7.87604 0.666016 7.99999C0.666016 8.12394 0.700573 8.24544 0.765807 8.35084C0.83104 8.45624 0.924367 8.54136 1.0353 8.59666L3.17597 9.66666L1.0353 10.7367C0.924367 10.7919 0.83104 10.8771 0.765807 10.9825C0.700573 11.0879 0.666016 11.2094 0.666016 11.3333C0.666016 11.4573 0.700573 11.5788 0.765807 11.6842C0.83104 11.7896 0.924367 11.8747 1.0353 11.93L7.70197 15.2633C7.79451 15.3096 7.89653 15.3336 7.99997 15.3336C8.10341 15.3336 8.20544 15.3096 8.29797 15.2633L14.9646 11.93C15.0756 11.8747 15.1689 11.7896 15.2341 11.6842C15.2994 11.5788 15.3339 11.4573 15.3339 11.3333C15.3339 11.2094 15.2994 11.0879 15.2341 10.9825C15.1689 10.8771 15.0756 10.7919 14.9646 10.7367L12.824 9.66666L14.9646 8.59999C15.076 8.54436 15.1695 8.45868 15.2347 8.35264C15.2998 8.2466 15.334 8.12444 15.3333 7.99999ZM13.176 11.3333L7.99997 13.9213L2.82397 11.3333L4.66664 10.412L7.70197 11.9333C7.79451 11.9796 7.89653 12.0036 7.99997 12.0036C8.10341 12.0036 8.20544 11.9796 8.29797 11.9333L11.3333 10.412L13.176 11.3333ZM7.99997 10.588L2.82397 7.99999L4.66664 7.07866L7.70197 8.59999C7.79451 8.64623 7.89653 8.6703 7.99997 8.6703C8.10341 8.6703 8.20544 8.64623 8.29797 8.59999L11.3333 7.07866L13.176 7.99999L7.99997 10.588Z" fill="currentColor"/>
</g>
<defs>
<clipPath id="clip0_184_9858">
<rect width="16" height="16" fill="currentColor"/>
</clipPath>
</defs>
</svg>
