<svg width="16" height="17" viewBox="0 0 16 17" fill="none" xmlns="http://www.w3.org/2000/svg">
<path d="M7.99958 10.4645C7.60258 10.4648 7.21442 10.3472 6.88436 10.1266C6.55431 9.90599 6.29722 9.5923 6.14574 9.22534C5.99425 8.85838 5.9552 8.45468 6.03353 8.06549C6.11185 7.67629 6.30403 7.31913 6.58568 7.03934C6.6388 6.98671 6.70177 6.94507 6.77098 6.91678C6.8402 6.88849 6.91431 6.87411 6.98908 6.87446C7.06386 6.87481 7.13783 6.88988 7.20678 6.91882C7.27573 6.94776 7.3383 6.99 7.39092 7.04312C7.44355 7.09624 7.48519 7.15921 7.51348 7.22842C7.54177 7.29764 7.55615 7.37175 7.5558 7.44652C7.55545 7.5213 7.54038 7.59527 7.51144 7.66422C7.4825 7.73317 7.44026 7.79574 7.38714 7.84836C7.30558 7.92811 7.24081 8.02339 7.19666 8.12858C7.1525 8.23376 7.12986 8.34673 7.13007 8.4608C7.12002 8.64038 7.16639 8.8186 7.26269 8.97051C7.359 9.12241 7.50041 9.24038 7.66711 9.3079C7.83382 9.37541 8.01747 9.38909 8.19233 9.34701C8.3672 9.30493 8.52452 9.20921 8.64226 9.07324C8.74988 8.96658 8.89526 8.90674 9.04678 8.90674C9.19829 8.90674 9.34367 8.96658 9.45129 9.07324C9.55616 9.18179 9.61477 9.32682 9.61477 9.47775C9.61477 9.62868 9.55616 9.77372 9.45129 9.88227C9.2602 10.071 9.03338 10.2197 8.78411 10.3197C8.53483 10.4196 8.26812 10.4689 7.99958 10.4645Z" fill="currentColor"/>
<path d="M15.7495 8.46088C15.7495 10.5163 14.933 12.4875 13.4796 13.941C12.0262 15.3944 10.0549 16.2109 7.99951 16.2109C5.94408 16.2109 3.97284 15.3944 2.51943 13.941C1.06603 12.4875 0.249512 10.5163 0.249512 8.46088C0.249512 6.40545 1.06603 4.43421 2.51943 2.9808C3.97284 1.52739 5.94408 0.710876 7.99951 0.710876C8.14991 0.710876 8.29415 0.770622 8.40049 0.876968C8.50684 0.983315 8.56658 1.12755 8.56658 1.27795V4.15112C8.56463 4.30091 8.50425 4.44401 8.39833 4.54994C8.2924 4.65586 8.1493 4.71624 7.99951 4.71819C7.25902 4.7131 6.53427 4.93184 5.92024 5.34575C5.30276 5.75499 4.82121 6.33893 4.53706 7.02305C4.25291 7.70717 4.17904 8.46044 4.32488 9.18673C4.56205 10.0484 5.0968 10.7981 5.83424 11.3029C6.57167 11.8078 7.46411 12.035 8.35318 11.9444C9.24226 11.8538 10.0705 11.4511 10.6909 10.8079C11.3113 10.1646 11.6838 9.3224 11.7422 8.43063C11.7412 8.35588 11.7551 8.28169 11.7833 8.21243C11.8114 8.14317 11.8532 8.08025 11.906 8.02739C11.9589 7.97452 12.0218 7.93279 12.0911 7.90465C12.1603 7.87652 12.2345 7.86254 12.3093 7.86356H15.1824C15.2595 7.86345 15.3358 7.87906 15.4067 7.90943C15.4775 7.9398 15.5414 7.98429 15.5945 8.0402C15.6476 8.0961 15.6887 8.16224 15.7153 8.23457C15.742 8.3069 15.7536 8.3839 15.7495 8.46088Z" fill="currentColor"/>
<path d="M15.4772 4.02235C15.4575 4.16945 15.3973 4.30818 15.3033 4.42308L13.6626 6.06381C13.4293 6.29809 13.1406 6.46973 12.8233 6.56284C12.6372 6.61999 12.4434 6.64805 12.2487 6.64601C12.1154 6.65783 11.9813 6.65783 11.848 6.64601L10.8424 6.44942L9.11845 8.18089C9.01004 8.28398 8.86727 8.34325 8.71772 8.34723C8.56738 8.3471 8.42323 8.28726 8.31699 8.18089C8.26349 8.12876 8.22097 8.06644 8.19194 7.99762C8.16291 7.92879 8.14795 7.85485 8.14795 7.78016C8.14795 7.70546 8.16291 7.63152 8.19194 7.56269C8.22097 7.49387 8.26349 7.43155 8.31699 7.37942L10.0485 5.6404L9.84431 4.64235C9.78329 4.32066 9.79883 3.98912 9.88967 3.67455C9.98279 3.35727 10.1544 3.06861 10.3887 2.83528L12.0143 1.20967C12.126 1.10806 12.2656 1.04222 12.415 1.02064C12.5549 1.00038 12.6976 1.02416 12.8233 1.08869C12.9481 1.15215 13.0528 1.249 13.1258 1.36845C13.1996 1.50211 13.2312 1.655 13.2165 1.80698L12.9746 3.51577L14.6758 3.28138C14.8182 3.2674 14.9615 3.29673 15.0869 3.36553C15.2124 3.43433 15.3142 3.5394 15.3789 3.66698C15.4405 3.77551 15.4743 3.8976 15.4772 4.02235Z" fill="currentColor"/>
</svg>
