<svg width="16" height="16" viewBox="0 0 16 16" fill="currentColor" xmlns="http://www.w3.org/2000/svg">
<g clip-path="url(#clip0_184_9862)">
<path d="M14.6667 3.33334H11.3333V2.66666C11.3333 1.93131 10.7354 1.33331 10 1.33331H6C5.26466 1.33331 4.66666 1.93128 4.66666 2.66666V3.33331H1.33334C0.597969 3.33334 5.23844e-10 3.93131 5.23844e-10 4.66666V6.66666C5.23844e-10 7.40203 0.597969 8 1.33334 8H6.66669V7.66666C6.66666 7.62287 6.67526 7.57951 6.692 7.53906C6.70875 7.4986 6.7333 7.46184 6.76426 7.43088C6.79522 7.39992 6.83198 7.37537 6.87243 7.35863C6.91289 7.34189 6.95625 7.33328 7.00003 7.33331H9.00003C9.04381 7.33328 9.08717 7.34189 9.12763 7.35863C9.16809 7.37537 9.20485 7.39992 9.2358 7.43088C9.26676 7.46184 9.29132 7.4986 9.30806 7.53906C9.3248 7.57951 9.3334 7.62287 9.33337 7.66666V8H14.6667C15.402 8 16 7.40203 16 6.66666V4.66666C16 3.93131 15.402 3.33334 14.6667 3.33334ZM10 3.33334H6V2.66666H10V3.33334ZM15.8151 8.35969C15.7595 8.33214 15.6974 8.32062 15.6356 8.32643C15.5739 8.33223 15.5149 8.35513 15.4655 8.39256C15.2285 8.57194 14.9524 8.66666 14.6666 8.66666H9.33334V9.66666C9.33337 9.71044 9.32477 9.7538 9.30803 9.79426C9.29129 9.83471 9.26673 9.87147 9.23577 9.90243C9.20481 9.93339 9.16805 9.95794 9.1276 9.97469C9.08714 9.99143 9.04378 10 9 10H7C6.95622 10 6.91286 9.99143 6.8724 9.97469C6.83194 9.95794 6.79519 9.93339 6.76423 9.90243C6.73327 9.87147 6.70871 9.83471 6.69197 9.79426C6.67523 9.7538 6.66663 9.71044 6.66666 9.66666V8.66666H1.33334C1.04753 8.66666 0.7715 8.57194 0.5345 8.39256C0.485178 8.35483 0.426234 8.33174 0.364408 8.32593C0.302581 8.32011 0.240366 8.33181 0.184875 8.35969C0.12934 8.38733 0.0826167 8.42991 0.0499569 8.48265C0.0172972 8.53538 -3.476e-06 8.59619 5.23844e-10 8.65822L5.23844e-10 13.3333C5.23844e-10 14.0687 0.597969 14.6667 1.33334 14.6667H14.6667C15.402 14.6667 16 14.0687 16 13.3333V8.65822C16 8.59618 15.9827 8.53537 15.95 8.48263C15.9174 8.4299 15.8706 8.38732 15.8151 8.35969Z" fill="currentColor"/>
</g>
<defs>
<clipPath id="clip0_184_9862">
<rect width="16" height="16" fill="currentColor"/>
</clipPath>
</defs>
</svg>
