<svg width="16" height="16" viewBox="0 0 16 16" fill="currentColor" xmlns="http://www.w3.org/2000/svg">
<g clip-path="url(#clip0_184_9866)">
<path d="M4.66675 8.66666V14.6667C4.66675 14.8435 4.59651 15.013 4.47149 15.1381C4.34646 15.2631 4.17689 15.3333 4.00008 15.3333H1.33341C1.1566 15.3333 0.987034 15.2631 0.86201 15.1381C0.736986 15.013 0.666748 14.8435 0.666748 14.6667V8.66666C0.666748 8.48985 0.736986 8.32028 0.86201 8.19525C0.987034 8.07023 1.1566 7.99999 1.33341 7.99999H4.00008C4.17689 7.99999 4.34646 8.07023 4.47149 8.19525C4.59651 8.32028 4.66675 8.48985 4.66675 8.66666ZM9.33342 0.666656H6.66675C6.48994 0.666656 6.32037 0.736894 6.19534 0.861919C6.07032 0.986943 6.00008 1.15651 6.00008 1.33332V14.6667C6.00008 14.8435 6.07032 15.013 6.19534 15.1381C6.32037 15.2631 6.48994 15.3333 6.66675 15.3333H9.33342C9.51023 15.3333 9.6798 15.2631 9.80482 15.1381C9.92984 15.013 10.0001 14.8435 10.0001 14.6667V1.33332C10.0001 1.15651 9.92984 0.986943 9.80482 0.861919C9.6798 0.736894 9.51023 0.666656 9.33342 0.666656ZM14.6667 3.99999H12.0001C11.8233 3.99999 11.6537 4.07023 11.5287 4.19525C11.4037 4.32028 11.3334 4.48985 11.3334 4.66666V14.6667C11.3334 14.8435 11.4037 15.013 11.5287 15.1381C11.6537 15.2631 11.8233 15.3333 12.0001 15.3333H14.6667C14.8436 15.3333 15.0131 15.2631 15.1382 15.1381C15.2632 15.013 15.3334 14.8435 15.3334 14.6667V4.66666C15.3334 4.48985 15.2632 4.32028 15.1382 4.19525C15.0131 4.07023 14.8436 3.99999 14.6667 3.99999Z" fill="currentColor"/>
</g>
<defs>
<clipPath id="clip0_184_9866">
<rect width="16" height="16" fill="currentColor"/>
</clipPath>
</defs>
</svg>
