<svg width="16" height="17" viewBox="0 0 16 17" fill="none" xmlns="http://www.w3.org/2000/svg">
<g clip-path="url(#clip0_2246_5809)">
<path d="M9.35138 13.2353C9.09491 13.2353 8.85816 13.1958 8.62142 13.1366C8.16766 13.0183 7.73362 13.038 7.27986 13.1564C7.02339 13.2155 6.74719 13.255 6.47098 13.255C5.9975 13.2353 5.58319 13.0774 5.2478 12.7618C5.07025 12.5842 4.87296 12.4067 4.71513 12.2094C4.47838 11.9529 4.22191 11.7556 3.90625 11.6175C3.59059 11.4991 3.29466 11.3413 3.03819 11.144C2.82117 10.9862 2.64361 10.7692 2.52524 10.5324C2.32795 10.1576 2.24904 9.74329 2.22931 9.32899C2.22931 9.15143 2.18985 8.95414 2.15039 8.77658C2.13066 8.67794 2.05175 8.5793 2.01229 8.48065C1.91365 8.32282 1.81501 8.14526 1.71636 7.98743C1.57826 7.71123 1.47962 7.43503 1.42043 7.11937C1.38097 6.88263 1.4007 6.64588 1.45989 6.40914C1.5388 6.09348 1.65718 5.81727 1.81501 5.54107C1.93338 5.36351 2.03202 5.16623 2.13066 4.96894C2.17012 4.8703 2.18985 4.75192 2.18985 4.65328C2.20958 4.41653 2.22931 4.19952 2.26877 3.96277C2.32795 3.60766 2.44632 3.27227 2.66334 2.97634C2.76198 2.83824 2.91981 2.71986 3.05791 2.60149C3.31439 2.38448 3.59059 2.24637 3.90625 2.128C4.2811 2.00963 4.57703 1.77288 4.81377 1.47695C5.07025 1.14157 5.38591 0.885092 5.74102 0.687805C5.93831 0.589161 6.15533 0.529975 6.37234 0.490517C6.70773 0.45106 7.06285 0.470789 7.39824 0.549704C7.852 0.668076 8.30576 0.648347 8.75952 0.529975C9.09491 0.45106 9.43029 0.45106 9.76568 0.490517C10.1603 0.549704 10.4759 0.727262 10.7916 0.964007C10.9889 1.12184 11.1664 1.31912 11.3243 1.51641C11.561 1.81234 11.8372 2.00963 12.1923 2.128C12.4685 2.22665 12.7053 2.36475 12.942 2.52258C13.2971 2.77905 13.5339 3.09471 13.672 3.50901C13.7706 3.80494 13.8298 4.10087 13.8495 4.39681C13.8693 4.57436 13.889 4.75192 13.9284 4.92948C13.9482 5.02813 14.0074 5.12677 14.0665 5.22541C14.1652 5.4227 14.2836 5.60026 14.3822 5.77782C14.54 6.07375 14.6387 6.40914 14.6584 6.74452C14.6781 7.06018 14.5992 7.35612 14.5006 7.65205C14.4217 7.90852 14.2836 8.12554 14.1455 8.34255C14.0665 8.48065 13.9876 8.59903 13.9284 8.73713C13.889 8.83577 13.8693 8.95414 13.8495 9.05279C13.8298 9.25007 13.8298 9.46709 13.7903 9.66438C13.7312 10.0984 13.5733 10.493 13.2971 10.8481C13.1196 11.0651 12.8828 11.2229 12.6263 11.361C12.3699 11.4794 12.1134 11.5978 11.8569 11.7162C11.6596 11.8148 11.5018 11.9529 11.344 12.1107C11.1664 12.2883 11.0086 12.4856 10.831 12.6631C10.5746 12.9196 10.2589 13.0774 9.88406 13.1564C9.7065 13.1958 9.52894 13.2155 9.35138 13.2353ZM4.79404 6.8629C4.79404 8.61876 6.19478 10.059 7.9901 10.059C9.78541 10.059 11.1862 8.59903 11.1862 6.8629C11.1862 5.08731 9.74595 3.66684 7.9901 3.66684C6.21451 3.66684 4.79404 5.10704 4.79404 6.8629Z" fill="currentColor"/>
<path d="M1.7162 10.5719C1.81485 10.8481 1.95295 11.0848 2.13051 11.2821C2.38698 11.5978 2.68291 11.8345 3.03803 12.0318C3.21559 12.1305 3.39314 12.2094 3.59043 12.2883C3.66935 12.3278 3.74826 12.3475 3.80745 12.3869C3.98501 12.4659 4.10338 12.604 4.22175 12.7421C4.35985 12.8999 4.49795 13.0774 4.63605 13.2353C4.91226 13.5312 5.24764 13.7285 5.62249 13.8863C5.87896 13.985 6.13544 14.0244 6.41164 14.0244C6.4511 14.0244 6.47083 14.0244 6.51028 14.0244C6.51028 14.0442 6.49056 14.0639 6.49056 14.0836C6.1749 14.7149 5.83951 15.366 5.52385 15.9973C5.40547 16.234 5.20819 16.3919 4.93198 16.4313C4.69524 16.4708 4.4585 16.4116 4.28094 16.234C3.86663 15.8395 3.47206 15.4252 3.07748 15.0306C3.05776 15.0109 3.03803 14.9911 3.0183 14.9714C2.93938 14.853 2.84074 14.8333 2.70264 14.8333C2.09105 14.8333 1.47946 14.8333 0.848138 14.8333C0.571936 14.8333 0.335191 14.7347 0.177361 14.5176C0.0195312 14.3204 -0.0199262 14.0836 0.0589887 13.8271C0.0984462 13.7088 0.157632 13.5904 0.216819 13.472C0.710037 12.5053 1.20326 11.5583 1.69647 10.5916C1.69647 10.6114 1.69647 10.5916 1.7162 10.5719Z" fill="currentColor"/>
<path d="M14.3425 10.5916C14.4806 10.8481 14.599 11.0848 14.7174 11.3216C15.1119 12.091 15.5262 12.8801 15.9208 13.6496C16.0787 13.9455 16.0195 14.3203 15.7827 14.5768C15.6052 14.7741 15.3881 14.853 15.1317 14.853C14.4806 14.853 13.8296 14.853 13.1785 14.853C13.1391 14.853 13.0996 14.8727 13.0602 14.8925C12.6459 15.3265 12.2118 15.7408 11.7778 16.1748C11.5608 16.3919 11.2846 16.4708 10.9886 16.4313C10.7519 16.3919 10.5743 16.234 10.4757 16.017C10.16 15.3857 9.82465 14.7346 9.50899 14.1033C9.50899 14.0836 9.48926 14.0836 9.48926 14.0639C9.62736 14.0441 9.76546 14.0441 9.88383 14.0244C10.4165 13.9455 10.8505 13.7088 11.2451 13.3734C11.4621 13.1761 11.6594 12.9788 11.8567 12.7618C11.9751 12.6237 12.1132 12.5053 12.2907 12.4264C12.6261 12.2883 12.9615 12.1305 13.2574 11.9332C13.5534 11.7556 13.8099 11.4991 14.0071 11.2229C14.1452 11.0256 14.2439 10.8086 14.3425 10.5916Z" fill="currentColor"/>
</g>
<defs>
<clipPath id="clip0_2246_5809">
<rect width="16" height="15.9803" fill="white" transform="translate(0 0.470764)"/>
</clipPath>
</defs>
</svg>
