<svg width="24" height="24" viewBox="0 0 24 24" fill="none" xmlns="http://www.w3.org/2000/svg">
<path d="M9.43333 10.9889L14.5667 8.34444M9.43333 13.0111L14.5667 15.6556M5 12C5 12.6188 5.24583 13.2123 5.68342 13.6499C6.121 14.0875 6.71449 14.3333 7.33333 14.3333C7.95217 14.3333 8.54566 14.0875 8.98325 13.6499C9.42083 13.2123 9.66667 12.6188 9.66667 12C9.66667 11.3812 9.42083 10.7877 8.98325 10.3501C8.54566 9.9125 7.95217 9.66667 7.33333 9.66667C6.71449 9.66667 6.121 9.9125 5.68342 10.3501C5.24583 10.7877 5 11.3812 5 12ZM14.3333 7.33333C14.3333 7.95217 14.5792 8.54566 15.0168 8.98325C15.4543 9.42083 16.0478 9.66667 16.6667 9.66667C17.2855 9.66667 17.879 9.42083 18.3166 8.98325C18.7542 8.54566 19 7.95217 19 7.33333C19 6.71449 18.7542 6.121 18.3166 5.68342C17.879 5.24583 17.2855 5 16.6667 5C16.0478 5 15.4543 5.24583 15.0168 5.68342C14.5792 6.121 14.3333 6.71449 14.3333 7.33333ZM14.3333 16.6667C14.3333 17.2855 14.5792 17.879 15.0168 18.3166C15.4543 18.7542 16.0478 19 16.6667 19C17.2855 19 17.879 18.7542 18.3166 18.3166C18.7542 17.879 19 17.2855 19 16.6667C19 16.0478 18.7542 15.4543 18.3166 15.0168C17.879 14.5792 17.2855 14.3333 16.6667 14.3333C16.0478 14.3333 15.4543 14.5792 15.0168 15.0168C14.5792 15.4543 14.3333 16.0478 14.3333 16.6667Z" stroke="currentColor" stroke-width="1.5" stroke-linecap="round" stroke-linejoin="round"/>
</svg>
