<svg width="13" height="12" viewBox="0 0 13 12" fill="none" xmlns="http://www.w3.org/2000/svg">
<path d="M9.75 3.875C9.75 2.83947 8.91053 2 7.875 2C6.83947 2 6 2.83947 6 3.875C6 4.91053 6.83947 5.75 7.875 5.75C8.91053 5.75 9.75 4.91053 9.75 3.875Z" fill="#020308" fill-opacity="0.6"/>
<path d="M6.20032 2.19094C5.76777 2.62109 5.5 3.21678 5.5 3.875C5.5 4.53322 5.76777 5.12891 6.20032 5.55906C5.95128 5.68134 5.67116 5.75 5.375 5.75C4.33947 5.75 3.5 4.91053 3.5 3.875C3.5 2.83947 4.33947 2 5.375 2C5.67116 2 5.95128 2.06866 6.20032 2.19094Z" fill="#020308" fill-opacity="0.6"/>
<path d="M11.25 8.375C11.25 7.33947 10.4105 6.5 9.375 6.5H6.375C5.33947 6.5 4.5 7.33947 4.5 8.375C4.5 9.41053 5.33947 10.25 6.375 10.25H9.375C10.4105 10.25 11.25 9.41053 11.25 8.375Z" fill="#020308" fill-opacity="0.6"/>
<path d="M4 8.375C4 8.88744 4.16229 9.36197 4.43828 9.75H3.875C2.83947 9.75 2 8.91053 2 7.875C2 6.83947 2.83947 6 3.875 6H6.375C5.06332 6 4 7.06332 4 8.375Z" fill="#020308" fill-opacity="0.6"/>
</svg>
